<svg width="800" height="600" viewBox="0 0 800 600" xmlns="http://www.w3.org/2000/svg">
  <!-- Background with gradient -->
  <defs>
    <linearGradient id="greenGradient" x1="0%" y1="0%" x2="0%" y2="100%">
      <stop offset="0%" stop-color="#2E8B57" />
      <stop offset="100%" stop-color="#3CB371" />
    </linearGradient>
  </defs>
  
  <!-- Green background -->
  <rect width="800" height="600" fill="url(#greenGradient)" />
  
  <!-- Living room elements -->
  <!-- Couch -->
  <rect x="400" y="350" width="300" height="100" rx="20" fill="#006400" />
  <rect x="400" y="300" width="300" height="50" rx="10" fill="#006400" />
  <rect x="380" y="350" width="20" height="100" rx="5" fill="#006400" />
  <rect x="700" y="350" width="20" height="100" rx="5" fill="#006400" />
  
  <!-- Coffee table -->
  <rect x="450" y="470" width="200" height="20" rx="5" fill="#8B4513" />
  <rect x="470" y="490" width="20" height="50" fill="#8B4513" />
  <rect x="610" y="490" width="20" height="50" fill="#8B4513" />
  
  <!-- Plant -->
  <rect x="150" y="450" width="50" height="80" fill="#8B4513" />
  <ellipse cx="175" cy="450" rx="60" ry="30" fill="#228B22" />
  <ellipse cx="175" cy="430" rx="50" ry="25" fill="#228B22" />
  <ellipse cx="175" cy="410" rx="40" ry="20" fill="#228B22" />
  
  <!-- Lamp -->
  <rect x="700" y="450" width="20" height="100" fill="#A9A9A9" />
  <path d="M710,450 L670,350 L750,350 Z" fill="#F5DEB3" />
  
  <!-- Woman figure -->
  <g transform="translate(300, 400)">
    <!-- Head -->
    <circle cx="0" cy="-150" r="40" fill="#FFB6C1" />
    
    <!-- Hair -->
    <path d="M-40,-150 Q-30,-200 0,-200 Q30,-200 40,-150 Q40,-120 0,-110 Q-40,-120 -40,-150 Z" fill="#FF69B4" />
    
    <!-- Body -->
    <path d="M-30,-110 L-50,50 L50,50 L30,-110 Z" fill="#9370DB" />
    
    <!-- Arms -->
    <path d="M-30,-100 L-90,-50 L-80,-40 L-20,-90 Z" fill="#9370DB" />
    <path d="M30,-100 L90,-50 L80,-40 L20,-90 Z" fill="#9370DB" />
    
    <!-- Legs -->
    <path d="M-30,50 L-40,150 L-10,150 L0,50 Z" fill="#663399" />
    <path d="M30,50 L40,150 L10,150 L0,50 Z" fill="#663399" />
    
    <!-- Shoes -->
    <ellipse cx="-25" cy="150" rx="20" ry="10" fill="#000000" />
    <ellipse cx="25" cy="150" rx="20" ry="10" fill="#000000" />
    
    <!-- Face features -->
    <circle cx="-15" cy="-160" r="5" fill="#000000" />
    <circle cx="15" cy="-160" r="5" fill="#000000" />
    <path d="M-15,-130 Q0,-120 15,-130" stroke="#000000" stroke-width="3" fill="none" />
  </g>
  
  <!-- Energy visualization -->
  <g transform="translate(300, 200)">
    <!-- Energy orb -->
    <circle cx="0" cy="0" r="50" fill="#00FF00" opacity="0.6" />
    
    <!-- Energy waves -->
    <circle cx="0" cy="0" r="70" stroke="#FFFFFF" stroke-width="2" fill="none" opacity="0.4" />
    <circle cx="0" cy="0" r="90" stroke="#FFFFFF" stroke-width="2" fill="none" opacity="0.3" />
    <circle cx="0" cy="0" r="110" stroke="#FFFFFF" stroke-width="2" fill="none" opacity="0.2" />
    
    <!-- Lightning bolt -->
    <path d="M0,-30 L-15,0 L0,0 L-15,30" stroke="#FFFF00" stroke-width="4" fill="none" />
    <path d="M0,-30 L15,0 L0,0 L15,30" stroke="#FFFF00" stroke-width="4" fill="none" />
  </g>
  
  <!-- Laptop on the couch -->
  <g transform="translate(550, 300)">
    <rect x="-40" y="0" width="80" height="50" rx="5" fill="#C0C0C0" />
    <rect x="-35" y="5" width="70" height="40" fill="#000000" />
    <rect x="-40" y="50" width="80" height="5" fill="#A9A9A9" />
  </g>
  
  <!-- Smart home icons floating around -->
  <g fill="#FFFFFF" opacity="0.8">
    <!-- Lightbulb icon -->
    <circle cx="150" cy="150" r="15" />
    <path d="M150,165 L150,180" stroke="#FFFFFF" stroke-width="3" />
    <path d="M140,175 L160,175" stroke="#FFFFFF" stroke-width="2" />
    
    <!-- Thermostat icon -->
    <circle cx="650" cy="150" r="15" stroke="#FFFFFF" stroke-width="3" fill="none" />
    <path d="M650,135 L650,165" stroke="#FFFFFF" stroke-width="3" />
    <path d="M650,150 L635,150" stroke="#FFFFFF" stroke-width="3" />
    
    <!-- WiFi icon -->
    <path d="M400,100 Q400,80 420,80 Q440,80 440,100" stroke="#FFFFFF" stroke-width="3" fill="none" />
    <path d="M410,100 Q410,90 420,90 Q430,90 430,100" stroke="#FFFFFF" stroke-width="3" fill="none" />
    <circle cx="420" cy="110" r="3" fill="#FFFFFF" />
  </g>
</svg>